<svg width="32" height="32" viewBox="0 0 32 32" fill="none" xmlns="http://www.w3.org/2000/svg">
<path d="M15.6923 25.3334C15.4001 25.3334 15.1561 25.2355 14.9603 25.0397C14.7645 24.844 14.6667 24.6 14.6667 24.3077V16.8717L7.47165 7.77441C7.29232 7.53508 7.26799 7.29064 7.39866 7.04108C7.52954 6.79153 7.73854 6.66675 8.02566 6.66675H23.9743C24.2614 6.66675 24.4704 6.79153 24.6013 7.04108C24.732 7.29064 24.7077 7.53508 24.5283 7.77441L17.3333 16.8717V24.3077C17.3333 24.6 17.2354 24.844 17.0397 25.0397C16.8439 25.2355 16.5999 25.3334 16.3077 25.3334H15.6923ZM16 16.4001L22.6 8.00008H9.39999L16 16.4001Z" fill="black"/>
</svg>
