<svg width="32" height="32" viewBox="0 0 32 32" fill="none" xmlns="http://www.w3.org/2000/svg">
<path d="M25.9794 26.8717L17.6307 18.523C16.964 19.0906 16.1974 19.5299 15.3307 19.841C14.464 20.1521 13.5931 20.3077 12.718 20.3077C10.5825 20.3077 8.77503 19.5685 7.29569 18.09C5.81658 16.6116 5.07703 14.8053 5.07703 12.671C5.07703 10.5366 5.81625 8.72869 7.29469 7.24736C8.77314 5.76625 10.5795 5.0257 12.7137 5.0257C14.8481 5.0257 16.656 5.76525 18.1374 7.24436C19.6185 8.7237 20.359 10.5311 20.359 12.6667C20.359 13.5931 20.1949 14.4897 19.8667 15.3564C19.5385 16.223 19.1077 16.964 18.5744 17.5794L26.923 25.9284L25.9794 26.8717ZM12.718 18.9744C14.4871 18.9744 15.9807 18.3654 17.1987 17.1474C18.4167 15.9296 19.0257 14.436 19.0257 12.6667C19.0257 10.8974 18.4167 9.40381 17.1987 8.18603C15.9807 6.96803 14.4871 6.35903 12.718 6.35903C10.9487 6.35903 9.45514 6.96803 8.23736 8.18603C7.01936 9.40381 6.41036 10.8974 6.41036 12.6667C6.41036 14.436 7.01936 15.9296 8.23736 17.1474C9.45514 18.3654 10.9487 18.9744 12.718 18.9744Z" fill="black"/>
</svg>
